<?xml version="1.0" encoding="UTF-8"?>
<!DOCTYPE svg PUBLIC "-//W3C//DTD SVG 1.1//EN" "http://www.w3.org/Graphics/SVG/1.1/DTD/svg11.dtd">
<!-- Creator: CorelDRAW X5 -->
<svg xmlns="http://www.w3.org/2000/svg" xml:space="preserve" width="7.11472in" height="1.92393in" style="shape-rendering:geometricPrecision; text-rendering:geometricPrecision; image-rendering:optimizeQuality; fill-rule:evenodd; clip-rule:evenodd"
viewBox="0 0 6.97565 1.88633"
 xmlns:xlink="http://www.w3.org/1999/xlink">
 <defs>
  <style type="text/css">
   <![CDATA[
    .fil1 {fill:#FEFEFE}
    .fil0 {fill:#FEFEFE;fill-rule:nonzero}
   ]]>
  </style>
 </defs>
 <g id="Layer_x0020_1">
  <metadata id="CorelCorpID_0Corel-Layer"/>
  <g id="_375996456">
   <path id="_375996048" class="fil0" d="M6.60674 1.52801c0,-0.0547355 0.00884723,-0.0928651 0.0265456,-0.114396 0.0176945,-0.0215275 0.053728,-0.0322932 0.108097,-0.0322932 0.0510878,0 0.0871175,0.00830297 0.108101,0.024905 0.0209794,0.0166021 0.031471,0.051358 0.031471,0.104268l0 0.0284601 0 0.173505 0.0908579 0 0 0.111112 -0.365072 0 0 -0.29556zm0.138475 -0.0344857c-0.0200684,0 -0.0333894,0.00438116 -0.0399554,0.0131396 -0.0065698,0.00875459 -0.00985085,0.0240829 -0.00985085,0.0459732l0 0.159822 0.0968757 0 0 -0.161462c0,-0.0211647 -0.00301084,-0.0360336 -0.00902866,-0.0446067 -0.00602168,-0.00857703 -0.0187019,-0.0128655 -0.0380408,-0.0128655z"/>
   <path id="_375996336" class="fil0" d="M6.60664 1.16262c0,-0.0441628 0.00857703,-0.0753675 0.0257311,-0.0936178 0.00839561,-0.00949186 0.0198947,-0.0166098 0.0344934,-0.0213499 0.0145987,-0.00474786 0.0330304,-0.00711793 0.0552952,-0.00711793l0.00602168 0c0.0153321,0 0.028105,0.000910972 0.0383264,0.00273292 0.0102176,0.00182966 0.0195241,0.00547741 0.0279197,0.010951 0.00839561,0.00547741 0.0149654,0.0118658 0.0197094,0.0191613 0.0029182,0.00511071 0.00876231,0.0204428 0.0175208,0.0459925 0.0032849,-0.0248201 0.00976207,-0.0434371 0.0194354,-0.0558433 0.00967329,-0.0124101 0.0265533,-0.018617 0.0506439,-0.018617l0.0700792 0 0 0.112783 -0.0350415 0c-0.0175169,0 -0.031664,0.00155174 -0.0424297,0.00465522 -0.0107657,0.00310348 -0.0161504,0.0176095 -0.0161504,0.0435221l0 0.181036c-0.00348563,-0.00441976 -0.00732637,-0.00824121 -0.0115222,-0.0114605 -0.0171618,-0.0131589 -0.042889,-0.0217437 -0.077174,-0.0257465l0 -0.126309 0 -0.014232c0,-0.0251868 -0.00309962,-0.0408818 -0.00939536,-0.0470849 -0.00620696,-0.00620696 -0.0201688,-0.00931044 -0.0417928,-0.00931044 -0.0125027,0 -0.0214426,0.0011889 -0.0267347,0.00355897 -0.00529213,0.00237393 -0.00949186,0.007392 -0.0124101,0.0150581l-0.00383303 0.018065 0 0.0169726 0 0.00876231 0 0.134226c-0.0396968,0.00462434 -0.0673309,0.016108 -0.0828984,0.0344625 -0.00203039,0.00239323 -0.00396427,0.00496788 -0.00579393,0.00772396l0 -0.228974z"/>
   <path id="_375995952" class="fil0" d="M6.60291 0.765039l0.00164438 -0.0886692c0,-0.0649492 0.010673,-0.109375 0.0321079,-0.133276 0.0214387,-0.0239014 0.0643123,-0.0358483 0.128625,-0.0358483l0.0174243 0c0.0756222,0 0.126162,0.00948414 0.151793,0.0284601 0.0256346,0.0189721 0.0384075,0.0669564 0.0384075,0.143949l0.00273678 0.0837438 0 0.0350261 -0.00273678 0.0755335c0,0.0419626 -0.00958064,0.0745298 -0.0287381,0.0977017 -0.0191536,0.023168 -0.0500803,0.0347559 -0.0927724,0.0347559l-0.0673231 0.00109239c-0.0740705,0 -0.12251,-0.00939536 -0.145315,-0.0281861 -0.0228052,-0.0187946 -0.0342078,-0.0639494 -0.0342078,-0.135468l-0.00164438 -0.0788145zm0.282973 0.0602052l0 -0.0596571 0 -0.0569242c0,-0.0310155 -0.0032849,-0.0534578 -0.00985085,-0.0673231 -0.00665859,-0.0138653 -0.0234459,-0.0207979 -0.0505396,-0.0207979l-0.0493507 -0.00109239c-0.0165094,0 -0.0307414,0.000999753 -0.0428736,0.00300698 -0.0120395,0.00200723 -0.0207979,0.00602168 -0.0263641,0.0120434 -0.00547355,0.00602168 -0.0091213,0.0150503 -0.0109471,0.0270937 -0.00182194,0.0120395 -0.00282556,0.0208906 -0.00301084,0.0265456 -0.000181422,0.00565497 -0.000270203,0.0101249 -0.000270203,0.0134098l0 0.11056c0,0.0259087 0.00255149,0.0450661 0.00775098,0.0574723 0.004744,0.0131357 0.0157837,0.0207979 0.0331154,0.0229866l0.0414145 0.00273678 0.00994349 0 0.0148689 0c0.0334782,0 0.0561946,-0.00382917 0.0681453,-0.0114952 0.0119469,-0.0076622 0.0179685,-0.0271825 0.0179685,-0.0585647z"/>
  </g>
  <path class="fil0" d="M1.49487 1.6322l-0.031498 0.0278541c-0.0110745,-0.0153823 -0.0223535,-0.0231217 -0.0338449,-0.0231217 -0.00555847,0 -0.0101326,0.00150542 -0.0137225,0.00452012 -0.00353195,0.00296066 -0.00529985,0.0063382 -0.00529985,0.0100825 0,0.00379057 0.0012468,0.00732637 0.00379443,0.0107039 0.00348177,0.0044159 0.0138769,0.0140313 0.0312394,0.0287381 0.0162199,0.0136144 0.0260939,0.0221914 0.0295294,0.0257234 0.00862721,0.00873143 0.0147608,0.0170962 0.0183468,0.0250479 0.00358599,0.00800188 0.00540407,0.0166831 0.00540407,0.0261403 0,0.018343 -0.0063382,0.0335168 -0.0190223,0.0455216 -0.0126841,0.0119546 -0.0292669,0.0179299 -0.0496441,0.0179299 -0.0159574,0 -0.0298382,-0.00389865 -0.0416384,-0.0116921 -0.0118465,-0.00784748 -0.021983,-0.0201109 -0.0304056,-0.0368442l0.0358135 -0.0216201c0.0107618,0.0198021 0.0231294,0.0296722 0.0371144,0.0296722 0.00733023,0 0.0134639,-0.00213075 0.0184549,-0.00638838 0.00499104,-0.0042615 0.0074306,-0.0091985 0.0074306,-0.0147608 0,-0.00509141 -0.00186826,-0.0101326 -0.00561251,-0.0152279 -0.00374039,-0.00509141 -0.0120086,-0.0128347 -0.0247931,-0.02328 -0.0243801,-0.0199024 -0.0401329,-0.0352847 -0.0472509,-0.0460929 -0.00707161,-0.010812 -0.0106576,-0.02157 -0.0106576,-0.0323241 0,-0.0155406 0.00592518,-0.0288423 0.0177755,-0.0399631 0.0118002,-0.0111208 0.0264066,-0.0166831 0.0437691,-0.0166831 0.0111787,0 0.0217823,0.00259781 0.0319188,0.00774326 0.0100825,0.00519563 0.0209987,0.0146566 0.0327988,0.0283212z"/>
  <path id="1" class="fil0" d="M1.57959 1.59188c0.00728005,0 0.0135681,0.00265185 0.0188216,0.00790152 0.00519563,0.00529985 0.00779344,0.0116921 0.00779344,0.0191729 0,0.00743446 -0.00254377,0.0137727 -0.00774326,0.0189683 -0.00519949,0.00524967 -0.0113833,0.00784748 -0.0185591,0.00784748 -0.0074306,0 -0.0137727,-0.00264799 -0.0189721,-0.00800188 -0.00524967,-0.00529985 -0.00784748,-0.0117963 -0.00784748,-0.0193852 0,-0.00732637 0.00259781,-0.0135642 0.00774326,-0.0187598 0.00520335,-0.00514545 0.0114373,-0.00774326 0.0187637,-0.00774326zm-0.0208945 0.0681801l0.0417426 0 0 0.165673 -0.0417426 0 0 -0.165673z"/>
  <path id="12" class="fil0" d="M1.66592 1.66006l0.0417426 0 0 0.0190725c0.00712179,-0.00784748 0.0150233,-0.0136646 0.0237046,-0.017513 0.00868125,-0.00384461 0.0181384,-0.0058171 0.0283829,-0.0058171 0.0103449,0 0.0196978,0.00254377 0.0280162,0.00763904 0.00831841,0.00509141 0.0150233,0.0124718 0.0201147,0.0222416 0.00660455,-0.00976979 0.0147107,-0.0171502 0.0242759,-0.0222416 0.00961924,-0.00509527 0.0200645,-0.00763904 0.0314478,-0.00763904 0.0118002,0 0.022149,0.00275222 0.031085,0.00826051 0.00894374,0.00545811 0.0153398,0.0126301 0.0192346,0.0214619 0.00395269,0.00883565 0.005875,0.0231796 0.005875,0.043082l0 0.0971266 -0.0418468 0 0 -0.0840294c0,-0.0188139 -0.00233919,-0.0314941 -0.00701371,-0.038145 -0.00468224,-0.00665087 -0.0116998,-0.00997823 -0.0210025,-0.00997823 -0.00712179,0 -0.0135179,0.00202653 -0.0191304,0.00607958 -0.00566269,0.00405305 -0.00982383,0.00966556 -0.0125799,0.0168375 -0.00275222,0.00717197 -0.00410323,0.0186556 -0.00410323,0.034505l0 0.0747306 -0.041897 0 0 -0.0802389c0,-0.014811 -0.00109239,-0.0255651 -0.00327332,-0.0322198 -0.00218865,-0.00665087 -0.00546197,-0.0115879 -0.00982769,-0.0148072 -0.00436572,-0.00327718 -0.00961924,-0.00488682 -0.015803,-0.00488682 -0.00691335,0 -0.0132014,0.00208057 -0.0188177,0.0061838 -0.00561251,0.00410709 -0.00987401,0.00987401 -0.0126301,0.0172544 -0.00281012,0.0074306 -0.00421131,0.0190725 -0.00421131,0.0350261l0 0.0736884 -0.0417426 0 0 -0.165673z"/>
  <path id="123" class="fil0" d="M2.0289 1.66006l0 0.0182928c0.00754254,-0.00748078 0.0156486,-0.0131473 0.0243839,-0.0168877 0.00873143,-0.00374039 0.0180882,-0.00566269 0.0280162,-0.00566269 0.021624,0 0.0400249,0.00821033 0.0551524,0.0245268 0.0151275,0.0163705 0.0226624,0.0373112 0.0226624,0.0628802 0,0.024685 -0.0077973,0.045317 -0.0234421,0.061892 -0.0156448,0.0165789 -0.0341537,0.0248935 -0.0555693,0.0248935 -0.0095652,0 -0.018451,-0.00171386 -0.0266652,-0.00509141 -0.00821419,-0.00343158 -0.0163743,-0.00893988 -0.0245383,-0.0166831l0 0.0781081 -0.0412717 0 0 -0.226268 0.0412717 0zm0.0437189 0.034146c-0.013101,0 -0.0239632,0.00446608 -0.0325904,0.013406 -0.00863107,0.00888583 -0.0129466,0.0205779 -0.0129466,0.0349721 0,0.0147608 0.00431554,0.0266614 0.0129466,0.0357016 0.00862721,0.00909428 0.0194894,0.0136684 0.0325904,0.0136684 0.0126841,0 0.0233919,-0.00462434 0.0320732,-0.013873 0.00868125,-0.00925254 0.0129968,-0.0209948 0.0129968,-0.0353388 0,-0.0141857 -0.00426536,-0.0258276 -0.0127883,-0.0349219 -0.00852685,-0.00909428 -0.0192887,-0.0136144 -0.0322816,-0.0136144z"/>
  <polygon id="1234" class="fil0" points="2.21732,1.59614 2.25891,1.59614 2.25891,1.82573 2.21732,1.82573 "/>
  <path id="12345" class="fil0" d="M2.34103 1.59188c0.00728005,0 0.0135681,0.00265185 0.0188216,0.00790152 0.00519563,0.00529985 0.00779344,0.0116921 0.00779344,0.0191729 0,0.00743446 -0.00254377,0.0137727 -0.00774326,0.0189683 -0.00519949,0.00524967 -0.0113833,0.00784748 -0.0185591,0.00784748 -0.0074306,0 -0.0137727,-0.00264799 -0.0189721,-0.00800188 -0.00524967,-0.00529985 -0.00784748,-0.0117963 -0.00784748,-0.0193852 0,-0.00732637 0.00259781,-0.0135642 0.00774326,-0.0187598 0.00520335,-0.00514545 0.0114373,-0.00774326 0.0187637,-0.00774326zm-0.0208945 0.0681801l0.0417426 0 0 0.165673 -0.0417426 0 0 -0.165673z"/>
  <path id="123456" class="fil0" d="M2.40788 1.66006l0.0148149 0c0.000100361,-0.0216703 0.000413025,-0.0345552 0.00103835,-0.038504 0.00114257,-0.00914832 0.004937,-0.0163705 0.0114875,-0.0216703 0.00654664,-0.00535389 0.0158532,-0.00800574 0.0278117,-0.00800574 0.00862721,0 0.0184009,0.00197635 0.0292129,0.00592518l0 0.0316987c-0.00597922,-0.00176404 -0.010866,-0.00259781 -0.0147647,-0.00259781 -0.00483278,0 -0.00842263,0.000988173 -0.0106576,0.0030147 -0.00160964,0.00155946 -0.00243955,0.00467838 -0.00243955,0.00945712l-0.000158262 0.0206821 0.0263564 0 0 0.0353388 -0.0263564 0 0 0.130335 -0.0415303 0 0 -0.130335 -0.0148149 0 0 -0.0353388z"/>
  <polygon id="1234567" class="fil0" points="2.52477,1.66006 2.56724,1.66006 2.61033,1.76405 2.65784,1.66006 2.70052,1.66006 2.59666,1.88633 2.55367,1.88633 2.58782,1.81341 "/>
  <polygon id="12345678" class="fil0" points="2.84461,1.59905 2.88604,1.59905 2.88604,1.66006 2.91067,1.66006 2.91067,1.69586 2.88604,1.69586 2.88604,1.82573 2.84461,1.82573 2.84461,1.69586 2.82329,1.69586 2.82329,1.66006 2.84461,1.66006 "/>
  <path id="123456789" class="fil0" d="M2.96145 1.59614l0.0412755 0 0 0.0807059c0.00810996,-0.00701371 0.0163203,-0.0122634 0.0245345,-0.0157451 0.00821419,-0.00353581 0.0165326,-0.00529985 0.0249514,-0.00529985 0.0164786,0 0.0303053,0.00571287 0.0415882,0.0170962 0.00966556,0.00981997 0.0144482,0.0242681 0.0144482,0.0433908l0 0.109444 -0.040959 0 0 -0.0725998c0,-0.0192269 -0.000883951,-0.0322198 -0.00270203,-0.0389749 -0.00187598,-0.00680527 -0.0049949,-0.0119005 -0.0094108,-0.015224 -0.0044159,-0.00337754 -0.00982769,-0.00504123 -0.0163203,-0.00504123 -0.00847667,0 -0.0156988,0.00280626 -0.0217321,0.00836473 -0.0060294,0.00556233 -0.0102369,0.0132014 -0.0125799,0.0228129 -0.00119662,0.00499104 -0.00181808,0.0163705 -0.00181808,0.034146l0 0.0665164 -0.0412755 0 0 -0.229592z"/>
  <path id="12345678910" class="fil0" d="M3.34273 1.75495l-0.133589 0c0.0019223,0.0117423 0.00711793,0.021099 0.0154904,0.0280626 0.00836473,0.00696353 0.0190223,0.0104453 0.0320191,0.0104453 0.0155406,0 0.0289002,-0.00545811 0.0400789,-0.0163203l0.0350338 0.0164747c-0.00873143,0.0123676 -0.0191806,0.0215159 -0.0313976,0.0274913 -0.012163,0.00592518 -0.026615,0.00888583 -0.0434024,0.00888583 -0.0259936,0 -0.0471466,-0.00821033 -0.0634708,-0.0245808 -0.0163743,-0.0164207 -0.0245345,-0.0369484 -0.0245345,-0.0615794 0,-0.0253103 0.00816015,-0.0462511 0.0244303,-0.0629844 0.0163242,-0.0166831 0.0367515,-0.0250479 0.061286,-0.0250479 0.0260978,0 0.0473011,0.00836473 0.0636754,0.0250479 0.016328,0.0167333 0.0245383,0.0387665 0.0245383,0.0661535l-0.000158262 0.0079517zm-0.0417387 -0.0327409c-0.00275608,-0.00924868 -0.00816015,-0.0167333 -0.0162199,-0.0225543 -0.00805978,-0.00576691 -0.0174629,-0.00867739 -0.0281205,-0.00867739 -0.0115415,0 -0.0217321,0.00327332 -0.0304597,0.00976979 -0.00546197,0.00405305 -0.0105534,0.011225 -0.0152318,0.0214619l0.0900318 0z"/>
  <path id="1234567891011" class="fil0" d="M3.56468 1.60175l0.0432519 0 0.0861872 0.223979 -0.0443443 0 -0.0175169 -0.0461469 -0.0913288 0 -0.0183005 0.0461469 -0.0442864 0 0.0863377 -0.223979zm0.0219405 0.0593984l-0.0298884 0.0768613 0.0595683 0 -0.0296799 -0.0768613z"/>
  <path id="123456789101112" class="fil0" d="M3.91294 1.69358l-0.0345706 0.0190185c-0.00649646,-0.00680527 -0.0128926,-0.0114836 -0.0192308,-0.0141316 -0.0063382,-0.00265185 -0.0137765,-0.00395269 -0.0223034,-0.00395269 -0.0155406,0 -0.0281205,0.0046282 -0.0377358,0.0139271 -0.0095652,0.00925254 -0.0143439,0.0211531 -0.0143439,0.0357016 0,0.0140853 0.0045703,0.025623 0.0138267,0.034559 0.00924868,0.00893988 0.0213615,0.0134098 0.0363848,0.0134098 0.0186093,0 0.0330613,-0.00639224 0.0434024,-0.0190725l0.0327525 0.022396c-0.0177794,0.0230213 -0.042835,0.034559 -0.0752208,0.034559 -0.0291627,0 -0.0519794,-0.00862721 -0.068458,-0.0258816 -0.0164786,-0.0172506 -0.0247429,-0.0374656 -0.0247429,-0.0605912 0,-0.0160578 0.00400287,-0.0308186 0.0120086,-0.0443288 0.00805592,-0.01346 0.0192308,-0.0240597 0.0335786,-0.031803 0.014398,-0.00769308 0.0304597,-0.0115879 0.048239,-0.0115879 0.0164284,0 0.0311892,0.00327332 0.0442902,0.00981997 0.0130971,0.00654664 0.0238049,0.0159034 0.0321233,0.0279583z"/>
  <path id="12345678910111213" class="fil0" d="M4.10111 1.66006l0.0414299 0 0 0.165673 -0.0414299 0 0 -0.017513c-0.00810996,0.00774326 -0.0162663,0.0132516 -0.0244303,0.0166831 -0.00821033,0.00337754 -0.0170498,0.00509141 -0.026615,0.00509141 -0.0214156,0 -0.0399206,-0.00831455 -0.0555693,-0.0248935 -0.0156448,-0.0165751 -0.0234421,-0.037207 -0.0234421,-0.061892 0,-0.025569 0.00753868,-0.0465097 0.0226624,-0.0628802 0.0151275,-0.0163164 0.0335323,-0.0245268 0.0551524,-0.0245268 0.00993191,0 0.0192887,0.0019223 0.0280201,0.00566269 0.00873143,0.00374039 0.0167874,0.00940694 0.0242218,0.0168877l0 -0.0182928zm-0.0437151 0.034146c-0.0128926,0 -0.0236003,0.00452012 -0.0321233,0.0136144 -0.00852685,0.00909428 -0.0127883,0.0207362 -0.0127883,0.0349219 0,0.0143439 0.00431554,0.0260862 0.0129968,0.0353388 0.00867739,0.00924868 0.019389,0.013873 0.0320732,0.013873 0.0130971,0 0.0239632,-0.00457416 0.0325904,-0.0136684 0.00863107,-0.00904024 0.0129427,-0.0209408 0.0129427,-0.0357016 0,-0.0143941 -0.00431168,-0.0260862 -0.0129427,-0.0349721 -0.00862721,-0.00893988 -0.0195434,-0.013406 -0.0327487,-0.013406z"/>
  <path id="1234567891011121314" class="fil0" d="M4.33522 1.59614l0.0414299 0 0 0.229592 -0.0414299 0 0 -0.017513c-0.00810996,0.00774326 -0.0162663,0.0132516 -0.0244303,0.0166831 -0.00821033,0.00337754 -0.0170498,0.00509141 -0.026615,0.00509141 -0.0214156,0 -0.0399206,-0.00831455 -0.0555693,-0.0248935 -0.0156448,-0.0165751 -0.0234421,-0.037207 -0.0234421,-0.061892 0,-0.025569 0.00753868,-0.0465097 0.0226624,-0.0628802 0.0151275,-0.0163164 0.0335323,-0.0245268 0.0551524,-0.0245268 0.00993191,0 0.0192887,0.0019223 0.0280201,0.00566269 0.00873143,0.00374039 0.0167874,0.00940694 0.0242218,0.0168877l0 -0.0822113zm-0.0437151 0.0980646c-0.0128926,0 -0.0236003,0.00452012 -0.0321233,0.0136144 -0.00852685,0.00909428 -0.0127883,0.0207362 -0.0127883,0.0349219 0,0.0143439 0.00431554,0.0260862 0.0129968,0.0353388 0.00867739,0.00924868 0.019389,0.013873 0.0320732,0.013873 0.0130971,0 0.0239632,-0.00457416 0.0325904,-0.0136684 0.00863107,-0.00904024 0.0129427,-0.0209408 0.0129427,-0.0357016 0,-0.0143941 -0.00431168,-0.0260862 -0.0129427,-0.0349721 -0.00862721,-0.00893988 -0.0195434,-0.013406 -0.0327487,-0.013406z"/>
  <path id="123456789101112131415" class="fil0" d="M4.6129 1.75495l-0.133589 0c0.0019223,0.0117423 0.00711793,0.021099 0.0154904,0.0280626 0.00836473,0.00696353 0.0190223,0.0104453 0.0320191,0.0104453 0.0155406,0 0.0289002,-0.00545811 0.0400789,-0.0163203l0.0350338 0.0164747c-0.00873143,0.0123676 -0.0191806,0.0215159 -0.0313976,0.0274913 -0.012163,0.00592518 -0.026615,0.00888583 -0.0434024,0.00888583 -0.0259936,0 -0.0471466,-0.00821033 -0.0634708,-0.0245808 -0.0163743,-0.0164207 -0.0245345,-0.0369484 -0.0245345,-0.0615794 0,-0.0253103 0.00816015,-0.0462511 0.0244303,-0.0629844 0.0163242,-0.0166831 0.0367515,-0.0250479 0.061286,-0.0250479 0.0260978,0 0.0473011,0.00836473 0.0636754,0.0250479 0.016328,0.0167333 0.0245383,0.0387665 0.0245383,0.0661535l-0.000158262 0.0079517zm-0.0417387 -0.0327409c-0.00275608,-0.00924868 -0.00816015,-0.0167333 -0.0162199,-0.0225543 -0.00805978,-0.00576691 -0.0174629,-0.00867739 -0.0281205,-0.00867739 -0.0115415,0 -0.0217321,0.00327332 -0.0304597,0.00976979 -0.00546197,0.00405305 -0.0105534,0.011225 -0.0152318,0.0214619l0.0900318 0z"/>
  <path id="12345678910111213141516" class="fil0" d="M4.67444 1.66006l0.0417426 0 0 0.0190725c0.00712179,-0.00784748 0.0150233,-0.0136646 0.0237046,-0.017513 0.00868125,-0.00384461 0.0181384,-0.0058171 0.0283829,-0.0058171 0.0103449,0 0.0196978,0.00254377 0.0280162,0.00763904 0.00831841,0.00509141 0.0150233,0.0124718 0.0201147,0.0222416 0.00660455,-0.00976979 0.0147107,-0.0171502 0.0242759,-0.0222416 0.00961924,-0.00509527 0.0200645,-0.00763904 0.0314478,-0.00763904 0.0118002,0 0.022149,0.00275222 0.031085,0.00826051 0.00894374,0.00545811 0.0153398,0.0126301 0.0192346,0.0214619 0.00395269,0.00883565 0.005875,0.0231796 0.005875,0.043082l0 0.0971266 -0.0418468 0 0 -0.0840294c0,-0.0188139 -0.00233919,-0.0314941 -0.00701371,-0.038145 -0.00468224,-0.00665087 -0.0116998,-0.00997823 -0.0210025,-0.00997823 -0.00712179,0 -0.0135179,0.00202653 -0.0191304,0.00607958 -0.00566269,0.00405305 -0.00982383,0.00966556 -0.0125799,0.0168375 -0.00275222,0.00717197 -0.00410323,0.0186556 -0.00410323,0.034505l0 0.0747306 -0.041897 0 0 -0.0802389c0,-0.014811 -0.00109239,-0.0255651 -0.00327332,-0.0322198 -0.00218865,-0.00665087 -0.00546197,-0.0115879 -0.00982769,-0.0148072 -0.00436572,-0.00327718 -0.00961924,-0.00488682 -0.015803,-0.00488682 -0.00691335,0 -0.0132014,0.00208057 -0.0188177,0.0061838 -0.00561251,0.00410709 -0.00987401,0.00987401 -0.0126301,0.0172544 -0.00281012,0.0074306 -0.00421131,0.0190725 -0.00421131,0.0350261l0 0.0736884 -0.0417426 0 0 -0.165673z"/>
  <path id="1234567891011121314151617" class="fil0" d="M5.01246 1.59188c0.00728005,0 0.0135681,0.00265185 0.0188216,0.00790152 0.00519563,0.00529985 0.00779344,0.0116921 0.00779344,0.0191729 0,0.00743446 -0.00254377,0.0137727 -0.00774326,0.0189683 -0.00519949,0.00524967 -0.0113833,0.00784748 -0.0185591,0.00784748 -0.0074306,0 -0.0137727,-0.00264799 -0.0189721,-0.00800188 -0.00524967,-0.00529985 -0.00784748,-0.0117963 -0.00784748,-0.0193852 0,-0.00732637 0.00259781,-0.0135642 0.00774326,-0.0187598 0.00520335,-0.00514545 0.0114373,-0.00774326 0.0187637,-0.00774326zm-0.0208945 0.0681801l0.0417426 0 0 0.165673 -0.0417426 0 0 -0.165673z"/>
  <path id="123456789101112131415161718" class="fil0" d="M5.26129 1.69358l-0.0345706 0.0190185c-0.00649646,-0.00680527 -0.0128926,-0.0114836 -0.0192308,-0.0141316 -0.0063382,-0.00265185 -0.0137765,-0.00395269 -0.0223034,-0.00395269 -0.0155406,0 -0.0281205,0.0046282 -0.0377358,0.0139271 -0.0095652,0.00925254 -0.0143439,0.0211531 -0.0143439,0.0357016 0,0.0140853 0.0045703,0.025623 0.0138267,0.034559 0.00924868,0.00893988 0.0213615,0.0134098 0.0363848,0.0134098 0.0186093,0 0.0330613,-0.00639224 0.0434024,-0.0190725l0.0327525 0.022396c-0.0177794,0.0230213 -0.042835,0.034559 -0.0752208,0.034559 -0.0291627,0 -0.0519794,-0.00862721 -0.068458,-0.0258816 -0.0164786,-0.0172506 -0.0247429,-0.0374656 -0.0247429,-0.0605912 0,-0.0160578 0.00400287,-0.0308186 0.0120086,-0.0443288 0.00805592,-0.01346 0.0192308,-0.0240597 0.0335786,-0.031803 0.014398,-0.00769308 0.0304597,-0.0115879 0.048239,-0.0115879 0.0164284,0 0.0311892,0.00327332 0.0442902,0.00981997 0.0130971,0.00654664 0.0238049,0.0159034 0.0321233,0.0279583z"/>
  <polygon id="12345678910111213141516171819" class="fil0" points="5.41899,1.60175 5.4598,1.60175 5.55591,1.74913 5.55591,1.60175 5.59854,1.60175 5.59854,1.82573 5.55757,1.82573 5.46162,1.67882 5.46162,1.82573 5.41899,1.82573 "/>
  <path id="1234567891011121314151617181920" class="fil0" d="M5.8392 1.75495l-0.133589 0c0.0019223,0.0117423 0.00711793,0.021099 0.0154904,0.0280626 0.00836473,0.00696353 0.0190223,0.0104453 0.0320191,0.0104453 0.0155406,0 0.0289002,-0.00545811 0.0400789,-0.0163203l0.0350338 0.0164747c-0.00873143,0.0123676 -0.0191806,0.0215159 -0.0313976,0.0274913 -0.012163,0.00592518 -0.026615,0.00888583 -0.0434024,0.00888583 -0.0259936,0 -0.0471466,-0.00821033 -0.0634708,-0.0245808 -0.0163743,-0.0164207 -0.0245345,-0.0369484 -0.0245345,-0.0615794 0,-0.0253103 0.00816015,-0.0462511 0.0244303,-0.0629844 0.0163242,-0.0166831 0.0367515,-0.0250479 0.061286,-0.0250479 0.0260978,0 0.0473011,0.00836473 0.0636754,0.0250479 0.016328,0.0167333 0.0245383,0.0387665 0.0245383,0.0661535l-0.000158262 0.0079517zm-0.0417387 -0.0327409c-0.00275608,-0.00924868 -0.00816015,-0.0167333 -0.0162199,-0.0225543 -0.00805978,-0.00576691 -0.0174629,-0.00867739 -0.0281205,-0.00867739 -0.0115415,0 -0.0217321,0.00327332 -0.0304597,0.00976979 -0.00546197,0.00405305 -0.0105534,0.011225 -0.0152318,0.0214619l0.0900318 0z"/>
  <path id="123456789101112131415161718192021" class="fil0" d="M6.06708 1.75495l-0.133589 0c0.0019223,0.0117423 0.00711793,0.021099 0.0154904,0.0280626 0.00836473,0.00696353 0.0190223,0.0104453 0.0320191,0.0104453 0.0155406,0 0.0289002,-0.00545811 0.0400789,-0.0163203l0.0350338 0.0164747c-0.00873143,0.0123676 -0.0191806,0.0215159 -0.0313976,0.0274913 -0.012163,0.00592518 -0.026615,0.00888583 -0.0434024,0.00888583 -0.0259936,0 -0.0471466,-0.00821033 -0.0634708,-0.0245808 -0.0163743,-0.0164207 -0.0245345,-0.0369484 -0.0245345,-0.0615794 0,-0.0253103 0.00816015,-0.0462511 0.0244303,-0.0629844 0.0163242,-0.0166831 0.0367515,-0.0250479 0.061286,-0.0250479 0.0260978,0 0.0473011,0.00836473 0.0636754,0.0250479 0.016328,0.0167333 0.0245383,0.0387665 0.0245383,0.0661535l-0.000158262 0.0079517zm-0.0417387 -0.0327409c-0.00275608,-0.00924868 -0.00816015,-0.0167333 -0.0162199,-0.0225543 -0.00805978,-0.00576691 -0.0174629,-0.00867739 -0.0281205,-0.00867739 -0.0115415,0 -0.0217321,0.00327332 -0.0304597,0.00976979 -0.00546197,0.00405305 -0.0105534,0.011225 -0.0152318,0.0214619l0.0900318 0z"/>
  <path id="12345678910111213141516171819202122" class="fil0" d="M6.2514 1.59614l0.0414299 0 0 0.229592 -0.0414299 0 0 -0.017513c-0.00810996,0.00774326 -0.0162663,0.0132516 -0.0244303,0.0166831 -0.00821033,0.00337754 -0.0170498,0.00509141 -0.026615,0.00509141 -0.0214156,0 -0.0399206,-0.00831455 -0.0555693,-0.0248935 -0.0156448,-0.0165751 -0.0234421,-0.037207 -0.0234421,-0.061892 0,-0.025569 0.00753868,-0.0465097 0.0226624,-0.0628802 0.0151275,-0.0163164 0.0335323,-0.0245268 0.0551524,-0.0245268 0.00993191,0 0.0192887,0.0019223 0.0280201,0.00566269 0.00873143,0.00374039 0.0167874,0.00940694 0.0242218,0.0168877l0 -0.0822113zm-0.0437151 0.0980646c-0.0128926,0 -0.0236003,0.00452012 -0.0321233,0.0136144 -0.00852685,0.00909428 -0.0127883,0.0207362 -0.0127883,0.0349219 0,0.0143439 0.00431554,0.0260862 0.0129968,0.0353388 0.00867739,0.00924868 0.019389,0.013873 0.0320732,0.013873 0.0130971,0 0.0239632,-0.00457416 0.0325904,-0.0136684 0.00863107,-0.00904024 0.0129427,-0.0209408 0.0129427,-0.0357016 0,-0.0143941 -0.00431168,-0.0260862 -0.0129427,-0.0349721 -0.00862721,-0.00893988 -0.0195434,-0.013406 -0.0327487,-0.013406z"/>
  <path id="1234567891011121314151617181920212223" class="fil0" d="M6.46446 1.68324l-0.0257272 0.0257234c-0.0104492,-0.0103411 -0.0199101,-0.0155367 -0.0284331,-0.0155367 -0.00468224,0 -0.00837245,0.000984313 -0.0109703,0.00296066 -0.00265185,0.00197635 -0.00400287,0.00446994 -0.00400287,0.00738042 0,0.00223497 0.000883951,0.00431168 0.00254763,0.0061838 0.00166368,0.00186826 0.00582096,0.0044159 0.0124255,0.00768922l0.0151777 0.00758886c0.0160617,0.0079517 0.0270821,0.0160038 0.0330575,0.024218 0.00597922,0.00821033 0.00899392,0.0178759 0.00899392,0.0289427 0,0.0147068 -0.00540793,0.026974 -0.0162161,0.036848 -0.010812,0.00981997 -0.0253181,0.014757 -0.0434603,0.014757 -0.0241678,0 -0.0434564,-0.00945712 -0.0579085,-0.0283212l0.0256307 -0.0278541c0.00483664,0.00566269 0.0105495,0.010287 0.0171,0.0137688 0.0065505,0.00348177 0.0123715,0.00524967 0.0174667,0.00524967 0.00545811,0 0.00987401,-0.00130084 0.0132052,-0.00394883 0.00337754,-0.00265185 0.00504123,-0.00566655 0.00504123,-0.00914832 0,-0.00639224 -0.0060294,-0.0126262 -0.0180882,-0.0187058l-0.0140351 -0.00701757c-0.0268235,-0.0135102 -0.0401831,-0.0303979 -0.0401831,-0.050667 0,-0.0130971 0.00504123,-0.0243222 0.0151275,-0.0335709 0.0100825,-0.00930272 0.0230291,-0.0139772 0.0387781,-0.0139772 0.010758,0 0.0208443,0.00238937 0.0303554,0.00711793 0.00951116,0.00472856 0.0175709,0.0114836 0.0241176,0.0203193z"/>
  <path class="fil0" d="M0.43844 1.36638l-0.285242 0 0.43155 -0.773778 0.370789 -0.0922205 0.47242 0.865998 -0.282722 0c-0.115809,-0.222435 -0.233479,-0.43871 -0.353399,-0.660099 -0.120175,0.22186 -0.234355,0.437745 -0.353395,0.660099z"/>
  <path class="fil0" d="M2.64071 1.08244c0,0.115257 -0.0212419,0.192238 -0.0637294,0.230939 -0.0424837,0.0387009 -0.126405,0.0580513 -0.25176,0.0580513l-0.195604 0.00378671 -0.159007 -0.00378671c-0.169105,0 -0.277843,-0.0220872 -0.326217,-0.0662539 -0.048378,-0.0439582 -0.0725651,-0.112737 -0.0725651,-0.205911l-0.00756956 -0.176466c0,-0.13692 0.0201919,-0.237667 0.0605719,-0.30245 0.0403838,-0.0645671 0.122831,-0.0969606 0.247344,-0.0969606l0.239775 -0.00630732c0.0243955,0 0.0559476,0 0.0946484,0 0.038697,0 0.0647794,0 0.0782394,0 0.0445913,0 0.0992766,0.00336596 0.164056,0.010094 0.0647794,0.00694037 0.111262,0.0357556 0.139448,0.0866543 0.0281822,0.0508986 0.0422753,0.120098 0.0422753,0.207385l-0.248607 0c0,-0.0382801 -0.00946484,-0.0643625 -0.0283945,-0.0780309 -0.0189297,-0.0136723 -0.0490072,-0.0204042 -0.0902325,-0.0204042l-0.071932 0 -0.0706698 0 -0.129979 0c-0.0765602,0 -0.124093,0.0145138 -0.142602,0.0433291 -0.016826,0.0288153 -0.0252409,0.0885457 -0.0252409,0.179407 0,0.0917032 0.0100979,0.151858 0.030286,0.180673 0.0201919,0.0288114 0.0740358,0.0433252 0.161532,0.0433252l0.0996974 0 0.131242 0c0.0513194,0 0.0879165,-0.00715267 0.109791,-0.0216626 0.0218749,-0.0145138 0.0328104,-0.0483741 0.0328104,-0.10201l0.251131 0 0.00126224 0.0365971z"/>
  <path class="fil0" d="M3.05864 1.36638l-0.285242 0 0.469513 -0.841846 0.345826 0 0.459419 0.841846 -0.282718 0c-0.115813,-0.222435 -0.233483,-0.43871 -0.353399,-0.660099 -0.120179,0.22186 -0.234355,0.437745 -0.353399,0.660099z"/>
  <path class="fil0" d="M4.94163 0.52465c0.151437,0 0.253443,0.0252409 0.306025,0.0757187 0.0525816,0.0504779 0.0788724,0.151437 0.0788724,0.302871l0 0.0479534 0 0.0265031 0 0.0227164 0 0.0391177c0,0.0109394 0,0.0214542 0,0.031552 -0.00167912,0.00588658 -0.00252061,0.010094 -0.00252061,0.0126185 0,0.0193504 -0.00420745,0.0525816 -0.0126224,0.0996935 -0.00841105,0.0471158 -0.0376471,0.089391 -0.0877042,0.12683 -0.0500571,0.0374386 -0.112524,0.056156 -0.187402,0.056156l-0.836681 0 0 -0.84173 0.742033 0zm0.126197 0.426543l0 -0.00756956c0,-0.0835006 -0.0092564,-0.139657 -0.0277615,-0.168684 -0.0185089,-0.0288153 -0.0681492,-0.0433252 -0.148913,-0.0433252l-0.435379 0 0 0.429068 0.431592 0c0.0782432,0 0.12788,-0.0147261 0.148913,-0.0441706 0.0210334,-0.0296568 0.0315482,-0.0847628 0.0315482,-0.165318z"/>
  <polygon class="fil0" points="6.46753,0.52465 6.46753,0.716472 5.7848,0.716472 5.7848,0.860332 6.4221,0.860332 6.4221,1.02691 5.7848,1.02691 5.7848,1.17583 6.46753,1.17583 6.46753,1.36638 5.52863,1.36638 5.52863,0.52465 "/>
  <polygon class="fil1" points="0.791835,1.10695 0.652943,1.36638 0.930731,1.36638 "/>
  <polygon class="fil1" points="3.41077,1.10695 3.27188,1.36638 3.54967,1.36638 "/>
  <path class="fil1" d="M0.248525 0.351118l0.366404 -0.351118 0.493808 0.116299 -0.180048 0.167152 0.0378323 0.141197 -0.44174 0.118365 -0.0367515 -0.137163c0,0 0.0242411,-0.044738 0.115041,-0.0870325 0,0 -0.0793433,0.0185514 -0.141949,0.0834311l-0.10861 -0.026121 0.040766 0.15214c0.0132284,-0.000374425 0.0254725,0.00832227 0.029043,0.0216626 0.00405305,0.0151237 -0.00452784,0.0306604 -0.0192809,0.0353928l0.0761163 0.106113 -0.0917804 0.0245924 0.00656208 -0.129292c-0.0128578,-5.79007e-005 -0.024604,-0.00865809 -0.0280934,-0.0216742 -0.00357441,-0.0133365 0.00267887,-0.0269933 0.0143208,-0.0332814l-0.0426729 -0.159266 -0.0889664 -0.0213963z"/>
  <rect class="fil1" y="1.72889" width="1.28405" height="0.0204274"/>
 </g>
</svg>
